<svg width="156" height="43" viewBox="0 0 156 43" fill="none" xmlns="http://www.w3.org/2000/svg">
<path fill-rule="evenodd" clip-rule="evenodd" d="M102.598 28.3351C102.039 28.8942 101.281 29.2085 100.491 29.2091H93.001V22.4781H100.491C100.882 22.4781 101.27 22.5552 101.632 22.705C101.993 22.8548 102.322 23.0744 102.599 23.3512C102.876 23.628 103.095 23.9567 103.245 24.3183C103.395 24.68 103.472 25.0676 103.472 25.4591V26.2341C103.472 26.6246 103.394 27.0112 103.244 27.3717C103.094 27.7323 102.875 28.0596 102.598 28.3351ZM87.0239 16.6261C87.0237 16.609 87.0269 16.5919 87.0333 16.576C87.0397 16.5601 87.0493 16.5457 87.0614 16.5336C87.0735 16.5215 87.088 16.5119 87.1039 16.5055C87.1198 16.499 87.1368 16.4958 87.1539 16.4961H100.944C102.061 16.4955 103.166 16.7148 104.198 17.1417C105.23 17.5686 106.168 18.1946 106.958 18.9839C107.747 19.7733 108.374 20.7105 108.801 21.7421C109.229 22.7737 109.449 23.8795 109.449 24.9961V25.5321C109.448 28.1987 108.389 30.756 106.505 32.6431C106.484 32.6638 106.471 32.6913 106.468 32.7207C106.465 32.7501 106.472 32.7797 106.489 32.8041L113.418 42.7041C113.428 42.7177 113.435 42.7331 113.439 42.7494C113.442 42.7657 113.443 42.7827 113.44 42.7992C113.437 42.8157 113.431 42.8315 113.422 42.8455C113.413 42.8596 113.401 42.8717 113.387 42.8811C113.365 42.8953 113.34 42.9042 113.314 42.9071H106.337C106.318 42.906 106.299 42.9008 106.281 42.8919C106.264 42.8829 106.249 42.8704 106.237 42.8551L100.905 35.2401C100.895 35.223 100.88 35.2091 100.862 35.1999C100.845 35.1907 100.825 35.1866 100.805 35.1881H93.1369C93.104 35.1884 93.0726 35.2015 93.0492 35.2246C93.0259 35.2478 93.0125 35.2792 93.0119 35.3121V42.7821C93.0122 42.7993 93.009 42.8163 93.0026 42.8322C92.9962 42.8481 92.9866 42.8625 92.9745 42.8746C92.9623 42.8868 92.9479 42.8963 92.932 42.9028C92.9161 42.9092 92.8991 42.9124 92.8819 42.9121H87.155C87.1378 42.9122 87.1209 42.909 87.1051 42.9025C87.0892 42.896 87.0748 42.8864 87.0627 42.8743C87.0506 42.8622 87.0411 42.8478 87.0346 42.832C87.0281 42.8162 87.0248 42.7992 87.0249 42.7821L87.0239 16.6261Z" fill="white"/>
<path fill-rule="evenodd" clip-rule="evenodd" d="M79.299 16.4961H72.848L65.165 35.5091V16.4961H57.497L44.981 42.9111H52.545L59.188 28.9021V42.9111H68.624L76.38 23.7211V42.9111H82.363V16.4961H79.299Z" fill="white"/>
<path fill-rule="evenodd" clip-rule="evenodd" d="M44.4088 16.4961L39.4978 26.8531L34.0368 16.4961H26.4668L35.6068 35.0771L31.8928 42.9111H39.4568L51.9778 16.4961H44.4088Z" fill="white"/>
<path fill-rule="evenodd" clip-rule="evenodd" d="M13.237 36.9191L24.437 22.4781H24.364L21.799 16.5581H0.072998L3.23001 22.4781H16.87L0 42.8491H0.130005L0.072998 42.9111H27.544L30.764 36.9191H13.237Z" fill="white"/>
<path d="M121.944 8.87001C122.197 8.88313 122.449 8.90916 122.699 8.94801C123.557 6.4549 125.17 4.29081 127.314 2.75629C129.458 1.22176 132.027 0.392971 134.663 0.38501V25.844H121.944C119.716 25.8098 117.59 24.9006 116.027 23.3127C114.463 21.7248 113.586 19.5856 113.586 17.357C113.586 15.1284 114.463 12.9892 116.027 11.4013C117.59 9.81343 119.716 8.90422 121.944 8.87001Z" fill="#9BDAED"/>
<path d="M125.752 8.87001C125.93 8.88522 126.108 8.91127 126.283 8.94801C127.495 3.97401 130.772 0.38501 134.663 0.38501V25.844H125.752C122.47 25.844 119.812 22.044 119.812 17.354C119.812 12.664 122.47 8.87001 125.752 8.87001Z" fill="#329AD6"/>
<path d="M129.576 8.87001C129.679 8.88497 129.779 8.91112 129.876 8.94801C130.568 3.97401 132.441 0.38501 134.676 0.38501V25.844H129.576C127.703 25.844 126.176 22.044 126.176 17.354C126.176 12.664 127.698 8.87001 129.576 8.87001Z" fill="#0C81C3"/>
<path d="M134.663 0.38501C137.287 0.391447 139.845 1.21069 141.985 2.7301C144.125 4.24951 145.741 6.39446 146.612 8.87001H147.392C149.62 8.90422 151.746 9.81343 153.31 11.4013C154.873 12.9892 155.75 15.1284 155.75 17.357C155.75 19.5856 154.873 21.7248 153.31 23.3127C151.746 24.9006 149.62 25.8098 147.392 25.844H134.663V0.38501Z" fill="#2AC1DB"/>
</svg>
